<svg width="513" height="80" viewBox="0 0 513 80" fill="none" xmlns="http://www.w3.org/2000/svg">
<path d="M43.423 42.0526V39.454H70.8167V68.9049C67.4962 72.2253 63.4179 74.8239 58.5816 76.7007C53.8175 78.5775 48.4759 79.5159 42.5568 79.5159C36.4934 79.5159 30.8992 78.5414 25.7741 76.5924C20.6491 74.5713 16.1737 71.7922 12.348 68.2552C8.52225 64.646 5.52664 60.4594 3.36113 55.6953C1.2678 50.9312 0.221143 45.7339 0.221143 40.1036C0.221143 34.4733 1.2678 29.2761 3.36113 24.512C5.52664 19.7479 8.52225 15.5973 12.348 12.0603C16.1737 8.45112 20.6491 5.67205 25.7741 3.72309C30.8992 1.70195 36.4934 0.691382 42.5568 0.691382C45.1554 0.691382 47.9706 0.871841 51.0023 1.23276C54.1062 1.59368 57.0657 2.09896 59.8809 2.74861C62.696 3.32608 65.0781 4.04792 67.027 4.91413L66.4857 10.9775H65.836C62.9487 8.45112 59.4839 6.53825 55.4416 5.23895C51.3993 3.93964 47.1044 3.28999 42.5568 3.28999C35.7716 3.28999 29.8164 4.84194 24.6914 7.94584C19.5663 10.9775 15.5602 15.2725 12.6728 20.8306C9.85765 26.3166 8.45007 32.7409 8.45007 40.1036C8.45007 47.4663 9.85765 53.9268 12.6728 59.4849C15.5602 64.9709 19.5663 69.2658 24.6914 72.3697C29.8164 75.4014 35.7716 76.9172 42.5568 76.9172C46.7435 76.9172 50.6053 76.3398 54.1423 75.1848C57.7515 74.0299 60.8554 72.3697 63.454 70.2042V42.0526H43.423ZM84.4628 78L113.589 2.20724H120.302L149.428 78H141.524L128.098 42.4857H103.519L92.3669 78H84.4628ZM114.347 7.83756L104.277 39.8871H127.123L114.996 7.83756H114.347ZM165.366 78L168.073 0.691382H169.373L223.835 66.5228H224.485L222.103 2.20724H229.465L226.759 79.5159H225.459L170.997 13.6844H170.347L172.729 78H165.366ZM256.022 78V2.20724H289.046V7.51273L270.098 5.0224C266.777 4.5893 264.539 4.37275 263.384 4.37275V37.3967C264.323 37.3967 266.561 37.2885 270.098 37.0719L287.855 35.9892V40.9698L270.098 39.8871C266.561 39.6705 264.323 39.5622 263.384 39.5622V75.8345C264.684 75.8345 266.958 75.6179 270.206 75.1848L289.371 72.6945V78H256.022ZM305.458 75.6179L306.108 69.1214H306.757C309.572 71.5757 312.748 73.4885 316.285 74.86C319.822 76.2315 323.323 76.9172 326.788 76.9172C331.697 76.9172 335.667 75.5818 338.698 72.9111C341.73 70.1681 343.246 66.5228 343.246 61.9752C343.246 59.4488 342.669 57.1029 341.514 54.9373C340.431 52.7718 338.59 50.5702 335.992 48.3325C333.465 46.0949 329.964 43.6767 325.489 41.0781C322.385 39.2735 319.425 37.3967 316.61 35.4478C313.795 33.4266 311.485 31.1168 309.681 28.5182C307.876 25.8474 306.974 22.6713 306.974 18.9899C306.974 13.504 308.959 9.10077 312.929 5.78032C316.899 2.3877 322.132 0.691382 328.629 0.691382C331.516 0.691382 334.62 1.01621 337.94 1.66586C341.261 2.24333 343.823 3.00126 345.628 3.93965L345.087 10.0031H344.437C340.323 5.52768 335.053 3.28999 328.629 3.28999C324.009 3.28999 320.292 4.48102 317.476 6.86308C314.661 9.17296 313.254 12.3129 313.254 16.283C313.254 19.2426 314.012 21.8051 315.527 23.9706C317.116 26.0639 319.137 27.9768 321.591 29.7092C324.045 31.3694 326.68 32.9935 329.495 34.5816C332.743 36.4583 335.883 38.4434 338.915 40.5367C342.019 42.63 344.545 45.1565 346.494 48.116C348.515 51.0033 349.526 54.6486 349.526 59.0518C349.526 63.0941 348.588 66.6672 346.711 69.7711C344.834 72.8028 342.163 75.1848 338.698 76.9172C335.306 78.6497 331.336 79.5159 326.788 79.5159C323.901 79.5159 320.508 79.1549 316.61 78.4331C312.712 77.7113 308.995 76.7729 305.458 75.6179ZM370.853 78V2.20724H378.216V37.2885H423.691V2.20724H431.054V78H423.691V39.8871H378.216V78H370.853ZM447.989 78L477.115 2.20724H483.828L512.954 78H505.05L491.624 42.4857H467.045L455.893 78H447.989ZM477.873 7.83756L467.803 39.8871H490.649L478.523 7.83756H477.873Z" fill="white"/>
</svg>
